<?xml version="1.0" encoding="UTF-8"?>
<svg xmlns="http://www.w3.org/2000/svg" xmlns:xlink="http://www.w3.org/1999/xlink" width="24px" height="24px" viewBox="0 0 24 24" version="1.1">
<g id="surface1">
<path style=" stroke:none;fill-rule:nonzero;fill:rgb(0%,0%,0%);fill-opacity:1;" d="M 11.191406 0.300781 C 8.460938 0.472656 5.945312 1.523438 3.929688 3.335938 C 3.691406 3.550781 3.171875 4.078125 2.96875 4.308594 C 1.101562 6.453125 0.0898438 9.136719 0.0898438 11.964844 C 0.0898438 14.222656 0.738281 16.378906 1.984375 18.269531 C 3.925781 21.210938 7.109375 23.132812 10.632812 23.492188 C 11.136719 23.542969 11.488281 23.558594 12.054688 23.546875 C 12.601562 23.539062 12.769531 23.527344 13.230469 23.476562 C 15.890625 23.175781 18.355469 21.988281 20.238281 20.105469 C 22.046875 18.300781 23.191406 15.980469 23.523438 13.472656 C 23.652344 12.492188 23.648438 11.394531 23.515625 10.414062 C 23.050781 6.988281 21.109375 3.964844 18.171875 2.097656 C 17.550781 1.703125 16.742188 1.296875 16.066406 1.042969 C 14.929688 0.617188 13.785156 0.375 12.5625 0.300781 C 12.277344 0.285156 11.476562 0.285156 11.191406 0.300781 Z M 12.453125 1.800781 C 13.65625 1.871094 14.828125 2.148438 15.921875 2.628906 C 19.097656 4.015625 21.394531 6.921875 21.960938 10.253906 C 22.070312 10.878906 22.105469 11.398438 22.09375 12.074219 C 22.085938 12.574219 22.074219 12.75 22.023438 13.15625 C 21.632812 16.234375 19.8125 19 17.113281 20.625 C 15.804688 21.414062 14.386719 21.875 12.847656 22.019531 C 12.503906 22.050781 11.519531 22.054688 11.175781 22.027344 C 9.730469 21.902344 8.503906 21.570312 7.277344 20.96875 C 5.363281 20.019531 3.824219 18.535156 2.8125 16.660156 C 1.648438 14.5 1.320312 11.890625 1.914062 9.515625 C 2.089844 8.796875 2.324219 8.167969 2.664062 7.492188 C 3.800781 5.21875 5.75 3.441406 8.140625 2.496094 C 9.503906 1.957031 11.003906 1.714844 12.453125 1.800781 Z M 12.453125 1.800781 "/>
<path style=" stroke:none;fill-rule:nonzero;fill:rgb(0%,0%,0%);fill-opacity:1;" d="M 11.34375 2.917969 C 10.082031 2.984375 8.722656 3.367188 7.613281 3.964844 C 6.261719 4.695312 5.167969 5.695312 4.328125 6.964844 C 3.46875 8.265625 2.976562 9.726562 2.863281 11.316406 C 2.839844 11.636719 2.851562 12.507812 2.882812 12.8125 C 3.046875 14.316406 3.523438 15.652344 4.328125 16.875 C 5.785156 19.082031 8.117188 20.535156 10.71875 20.859375 C 11.152344 20.914062 11.277344 20.921875 11.859375 20.921875 C 12.476562 20.921875 12.675781 20.910156 13.15625 20.839844 C 14.550781 20.636719 15.929688 20.082031 17.085938 19.257812 C 19.035156 17.863281 20.359375 15.742188 20.742188 13.398438 C 21.023438 11.6875 20.816406 9.960938 20.140625 8.375 C 19.328125 6.472656 17.839844 4.867188 15.992188 3.914062 C 14.882812 3.339844 13.703125 3.011719 12.429688 2.921875 C 12.230469 2.910156 11.5625 2.90625 11.34375 2.917969 Z M 17.40625 11.910156 L 17.40625 15.980469 L 17.089844 15.980469 L 17.089844 12.117188 L 17.082031 8.253906 L 14.578125 10.992188 C 13.199219 12.503906 12.070312 13.742188 12.070312 13.75 C 12.070312 13.753906 12.480469 14.210938 12.984375 14.761719 C 13.488281 15.3125 13.898438 15.765625 13.898438 15.773438 C 13.898438 15.789062 13.6875 15.96875 13.671875 15.964844 C 13.664062 15.960938 13.253906 15.515625 12.757812 14.972656 C 12.261719 14.429688 11.851562 13.988281 11.84375 13.992188 C 11.835938 13.992188 11.429688 14.4375 10.9375 14.972656 C 10.445312 15.511719 10.039062 15.953125 10.03125 15.953125 C 10.011719 15.953125 9.8125 15.773438 9.8125 15.757812 C 9.8125 15.75 10.21875 15.296875 10.71875 14.753906 C 11.21875 14.207031 11.625 13.753906 11.625 13.75 C 11.625 13.742188 10.5 12.503906 9.121094 11 L 6.621094 8.261719 L 6.613281 12.128906 L 6.613281 15.996094 L 6.296875 15.996094 L 6.296875 7.855469 L 6.667969 7.855469 L 9.25 10.683594 C 10.671875 12.238281 11.839844 13.507812 11.847656 13.507812 C 11.851562 13.507812 13.023438 12.234375 14.449219 10.675781 L 17.039062 7.84375 L 17.222656 7.839844 L 17.40625 7.839844 Z M 17.40625 11.910156 "/>
</g>
</svg>
